<svg width="23" height="21" viewBox="0 0 23 21" fill="none" xmlns="http://www.w3.org/2000/svg">
<path fill-rule="evenodd" clip-rule="evenodd" d="M6.83333 3C6.83333 1.89543 7.72876 1 8.83333 1H14.1667C15.2712 1 16.1667 1.89543 16.1667 3V3.5C16.1667 4.05228 16.6144 4.5 17.1667 4.5H18C20.2091 4.5 22 6.29086 22 8.5V15.6667C22 17.8758 20.2091 19.6667 18 19.6667H5C2.79086 19.6667 1 17.8758 1 15.6667V8.5C1 6.29086 2.79086 4.5 5 4.5H5.83333C6.38562 4.5 6.83333 4.05228 6.83333 3.5V3ZM12.0833 16.1667C14.3385 16.1667 16.1667 14.3385 16.1667 12.0833C16.1667 9.82817 14.3385 8 12.0833 8C9.82817 8 8 9.82817 8 12.0833C8 14.3385 9.82817 16.1667 12.0833 16.1667Z" fill="#808191"/>
<path d="M8.83333 0.5C7.45262 0.5 6.33333 1.61929 6.33333 3H7.33333C7.33333 2.17157 8.00491 1.5 8.83333 1.5V0.5ZM14.1667 0.5H8.83333V1.5H14.1667V0.5ZM16.6667 3C16.6667 1.61929 15.5474 0.5 14.1667 0.5V1.5C14.9951 1.5 15.6667 2.17157 15.6667 3H16.6667ZM16.6667 3.5V3H15.6667V3.5H16.6667ZM17.1667 4C16.8905 4 16.6667 3.77614 16.6667 3.5H15.6667C15.6667 4.32843 16.3382 5 17.1667 5V4ZM18 4H17.1667V5H18V4ZM22.5 8.5C22.5 6.01472 20.4853 4 18 4V5C19.933 5 21.5 6.567 21.5 8.5H22.5ZM22.5 15.6667V8.5H21.5V15.6667H22.5ZM18 20.1667C20.4853 20.1667 22.5 18.1519 22.5 15.6667H21.5C21.5 17.5997 19.933 19.1667 18 19.1667V20.1667ZM5 20.1667H18V19.1667H5V20.1667ZM0.5 15.6667C0.5 18.1519 2.51472 20.1667 5 20.1667V19.1667C3.067 19.1667 1.5 17.5997 1.5 15.6667H0.5ZM0.5 8.5V15.6667H1.5V8.5H0.5ZM5 4C2.51472 4 0.5 6.01472 0.5 8.5H1.5C1.5 6.56701 3.067 5 5 5V4ZM5.83333 4H5V5H5.83333V4ZM6.33333 3.5C6.33333 3.77614 6.10948 4 5.83333 4V5C6.66176 5 7.33333 4.32843 7.33333 3.5H6.33333ZM6.33333 3V3.5H7.33333V3H6.33333ZM15.6667 12.0833C15.6667 14.0624 14.0624 15.6667 12.0833 15.6667V16.6667C14.6146 16.6667 16.6667 14.6146 16.6667 12.0833H15.6667ZM12.0833 8.5C14.0624 8.5 15.6667 10.1043 15.6667 12.0833H16.6667C16.6667 9.55203 14.6146 7.5 12.0833 7.5V8.5ZM8.5 12.0833C8.5 10.1043 10.1043 8.5 12.0833 8.5V7.5C9.55203 7.5 7.5 9.55203 7.5 12.0833H8.5ZM12.0833 15.6667C10.1043 15.6667 8.5 14.0624 8.5 12.0833H7.5C7.5 14.6146 9.55203 16.6667 12.0833 16.6667V15.6667Z" fill="#808191"/>
</svg>
