<svg width="26" height="26" viewBox="0 0 26 26" fill="none" xmlns="http://www.w3.org/2000/svg">
<rect y="0.187988" width="25.1582" height="25.1582" rx="12.5791" fill="#ED1C24"/>
<path d="M17.5245 7.83085C17.2623 7.56177 16.8743 7.46153 16.5125 7.56705L8.0758 10.0204C7.69408 10.1265 7.42352 10.4309 7.35063 10.8176C7.27618 11.2112 7.53625 11.7109 7.87603 11.9198L10.514 13.5412C10.7846 13.7073 11.1338 13.6657 11.3577 13.4398L14.3784 10.4003C14.5305 10.242 14.7822 10.242 14.9342 10.4003C15.0863 10.5533 15.0863 10.8013 14.9342 10.9596L11.9082 13.9996C11.6838 14.2249 11.6419 14.5758 11.807 14.848L13.4189 17.5125C13.6076 17.829 13.9327 18.0084 14.2893 18.0084C14.3312 18.0084 14.3784 18.0084 14.4204 18.0031C14.8294 17.9504 15.1544 17.6707 15.275 17.275L17.7762 8.84913C17.8863 8.49036 17.7867 8.09993 17.5245 7.83085Z" fill="white"/>
</svg>
